PathFileType	4	(X/Y/Z)	./resultDataOpenSim/trcMotMarkerGrf/sub10/qtm-02-08.trc
DataRate	CameraRate	NumFrames	NumMarkers	Units	OrigDataRate	OrigDataStartFrame	OrigNumFrames
250.000000	250.000000	14	24	m	250.000000	119	473
Frame#	Time	L.Toe.Tip			R.Toe.Tip			L.Ankle.Lat			R.Ankle.Lat			L.Ankle.Med			R.Ankle.Med			L.Heel			R.Heel			L.Knee.Lat			R.Knee.Lat			L.Knee.Med			R.Knee.Med			L.Thigh.Upper			R.Thigh.Upper			L.ASIS			R.ASIS			V.Sacral			L.Acromium			R.Acromium			C7			L.Elbow			R.Elbow			L.Wrist.Lat			R.Wrist.Lat
		X1	Y1	Z1	X2	Y2	Z2	X3	Y3	Z3	X4	Y4	Z4	X5	Y5	Z5	X6	Y6	Z6	X7	Y7	Z7	X8	Y8	Z8	X9	Y9	Z9	X10	Y10	Z10	X11	Y11	Z11	X12	Y12	Z12	X13	Y13	Z13	X14	Y14	Z14	X15	Y15	Z15	X16	Y16	Z16	X17	Y17	Z17	X18	Y18	Z18	X19	Y19	Z19	X20	Y20	Z20	X21	Y21	Z21	X22	Y22	Z22	X23	Y23	Z23	X24	Y24	Z24

119	0.472	-0.50377657	0.059960811	-0.093451911	-0.74737144	0.040266521	0.073530217	-0.63298373	0.10223672	-0.087213328	-0.88150698	0.056462352	0.12596686	-0.60164965	0.12352047	-0.010023683	-0.87510592	0.083006934	0.039811512	-0.68502617	0.078528641	-0.020915713	-0.93931563	0.032067996	0.084676371	-0.55872856	0.48448089	-0.1311519	-0.78173174	0.44766166	0.16130297	-0.51822717	0.46384929	-0.01811831	-0.7880096	0.45046315	0.030318353	-0.6975681	0.8401257	-0.17599439	-0.72837682	0.85865433	0.20786018	-0.64983314	0.95003742	-0.10381367	-0.64881642	0.94824393	0.14023965	-0.85163548	0.96024038	0.0098806754	-0.71015101	1.4196745	-0.13345029	-0.70847332	1.4194089	0.1900915	-0.79182699	1.4483566	0.023665674	-0.83360648	1.0941629	-0.1874063	-0.78879786	1.0763594	0.25180462	-0.69428204	0.89307796	-0.21193663	-0.63980293	0.88109757	0.27388553
120	0.476	-0.485135	0.060710912	-0.094552	-0.7474923	0.040388677	0.073528983	-0.6153665	0.099079069	-0.087786509	-0.88171173	0.056596515	0.12575014	-0.58462627	0.12104876	-0.010567525	-0.87490088	0.083125043	0.039782697	-0.66649786	0.073813582	-0.021203494	-0.939353	0.032210325	0.084484802	-0.55207143	0.48376414	-0.13141611	-0.78012401	0.44741743	0.16133688	-0.51123764	0.46362005	-0.018094004	-0.78624557	0.45023024	0.03031449	-0.69096254	0.83998098	-0.17632004	-0.7247512	0.85806592	0.20754937	-0.64375299	0.94944943	-0.10369967	-0.64438205	0.94737217	0.14046734	-0.84549338	0.95918031	0.0078432103	-0.70492807	1.4189104	-0.13360447	-0.70312191	1.41873	0.18991304	-0.78645637	1.4476336	0.023493497	-0.82923081	1.093937	-0.18734352	-0.78176269	1.0750456	0.25218476	-0.69123085	0.89223844	-0.21287479	-0.63028059	0.88138336	0.27198004
121	0.48	-0.46652233	0.061629067	-0.095537206	-0.74762401	0.040449956	0.073503341	-0.59762511	0.096108722	-0.088364032	-0.88175667	0.056698339	0.12558467	-0.56757516	0.11877039	-0.011110809	-0.87474676	0.083276074	0.039687869	-0.64796032	0.06937333	-0.02168882	-0.93939833	0.03234406	0.084292438	-0.54541822	0.48286843	-0.13179085	-0.77841242	0.44713561	0.16132598	-0.50434234	0.46325493	-0.018088212	-0.78449815	0.45001282	0.030148402	-0.68432935	0.83976837	-0.17660003	-0.72113154	0.85747197	0.20725579	-0.63764837	0.94879483	-0.10361076	-0.63995404	0.94647991	0.14068336	-0.84018332	0.95827765	0.0065854236	-0.69969448	1.418081	-0.13377144	-0.69773495	1.417982	0.18971545	-0.7810852	1.4468405	0.023308259	-0.82514512	1.0936465	-0.18769109	-0.77469945	1.0736872	0.25256633	-0.68816907	0.89134649	-0.2138104	-0.62069986	0.88164447	0.27005237
122	0.484	-0.44789428	0.062739272	-0.09636349	-0.74773172	0.040442471	0.073491613	-0.57980372	0.093311622	-0.089023506	-0.88177836	0.056789364	0.1254306	-0.55055503	0.11670236	-0.011703235	-0.874622	0.083416184	0.039563553	-0.62950054	0.065192581	-0.022432665	-0.93945201	0.03247192	0.08409954	-0.53886107	0.48181715	-0.13216451	-0.77667844	0.44682938	0.16124336	-0.49757676	0.46276289	-0.018097332	-0.78276133	0.44979503	0.029797837	-0.67787096	0.83942823	-0.17685977	-0.71750381	0.85685479	0.20698126	-0.63149135	0.94806955	-0.10353765	-0.63552756	0.9455697	0.14088938	-0.83518329	0.95741917	0.0057110359	-0.69448383	1.4172149	-0.13396985	-0.69230734	1.4171594	0.18949405	-0.77571644	1.4459786	0.023107083	-0.82124377	1.0932881	-0.18828786	-0.76760729	1.0722947	0.25295554	-0.68508829	0.89040295	-0.21473718	-0.61106462	0.88186369	0.26803656
123	0.488	-0.42923625	0.064053995	-0.096997727	-0.74782461	0.040389009	0.073484349	-0.56193812	0.090699077	-0.089791627	-0.88183439	0.056882998	0.12526491	-0.53365488	0.11480385	-0.012403848	-0.87449812	0.083502564	0.039449468	-0.6111593	0.061251085	-0.023421958	-0.93951291	0.032592222	0.083909919	-0.53244288	0.48062824	-0.13248311	-0.77506965	0.44650312	0.16105139	-0.49093691	0.46213515	-0.018119984	-0.78099213	0.44955822	0.029357186	-0.67158505	0.83892993	-0.17711832	-0.71384677	0.8561668	0.20672565	-0.62523317	0.94726335	-0.10347061	-0.63107512	0.94463923	0.14106957	-0.83026036	0.95656664	0.0049347082	-0.68932211	1.4163292	-0.13420836	-0.68683848	1.41626	0.18924936	-0.7703469	1.4450504	0.022892784	-0.81733962	1.0928643	-0.18890745	-0.76049068	1.0708599	0.25334708	-0.68199709	0.88940188	-0.21564985	-0.60134257	0.88202617	0.26588247
124	0.492	-0.41057915	0.065557518	-0.097439149	-0.74790914	0.040325531	0.073473855	-0.54407228	0.088340814	-0.090684467	-0.88190936	0.056984621	0.12508344	-0.51692424	0.11307253	-0.013224599	-0.87436801	0.083527596	0.03934258	-0.59289419	0.057564662	-0.024605744	-0.93957834	0.03270534	0.083728264	-0.52613226	0.47931338	-0.13276913	-0.77365159	0.4461428	0.1607442	-0.48441131	0.46134685	-0.018169035	-0.7790924	0.44928657	0.028942558	-0.66525182	0.8382965	-0.17738101	-0.71015193	0.85537759	0.20648208	-0.61885413	0.94636969	-0.1034071	-0.62657788	0.9436808	0.1412138	-0.82532477	0.95571924	0.0041354227	-0.68418112	1.4154055	-0.13447471	-0.68134306	1.4152882	0.18899154	-0.76496885	1.4440574	0.022670794	-0.81331319	1.0923835	-0.18941936	-0.75335203	1.06937	0.25373356	-0.67893073	0.88833677	-0.2165563	-0.59154887	0.88213412	0.26361563
125	0.496	-0.39197993	0.067217947	-0.097704321	-0.74797619	0.04027973	0.073466997	-0.52624697	0.086303652	-0.091735486	-0.88191215	0.057082066	0.12491412	-0.50034895	0.11156256	-0.014134498	-0.87423372	0.083517159	0.039215716	-0.57462107	0.054178654	-0.025942626	-0.93964149	0.032816057	0.083547545	-0.51987015	0.47788264	-0.13306448	-0.77225906	0.44573181	0.16037951	-0.4780271	0.4603831	-0.018270514	-0.77698475	0.44895292	0.028580472	-0.65871734	0.83756732	-0.17763943	-0.70642655	0.85452295	0.20621897	-0.61243253	0.94539264	-0.10335574	-0.62206548	0.94268405	0.14133048	-0.82020843	0.95484983	0.0032696208	-0.67898067	1.4144021	-0.1347424	-0.67584006	1.4142509	0.18873269	-0.75957569	1.4429979	0.022441695	-0.80915753	1.0918503	-0.18982242	-0.74619191	1.0678209	0.25411297	-0.67593487	0.8872087	-0.21748527	-0.58181425	0.88222149	0.2613698
126	0.5	-0.37348564	0.069017075	-0.097799112	-0.74802518	0.040242133	0.073460119	-0.50845304	0.084561108	-0.092930814	-0.88168913	0.057144544	0.12482287	-0.48387508	0.11031825	-0.015105373	-0.87409114	0.083497751	0.039059123	-0.55634132	0.051117928	-0.027430105	-0.93968851	0.032931776	0.083336364	-0.51360776	0.47634067	-0.13339947	-0.77062856	0.44527304	0.1600332	-0.4718298	0.45925257	-0.018442338	-0.77468533	0.44851766	0.028241111	-0.65204276	0.83676051	-0.17787883	-0.70268759	0.85368295	0.20590513	-0.60608947	0.9443393	-0.10332286	-0.61762543	0.94163734	0.14142701	-0.81455353	0.95384281	0.0022629118	-0.67365474	1.4132895	-0.13498598	-0.67033114	1.4131489	0.18847158	-0.75416779	1.4418692	0.02220242	-0.80492752	1.0912618	-0.19018232	-0.73900847	1.0662156	0.25448693	-0.67301851	0.88602402	-0.21846249	-0.57227407	0.88232549	0.25927183
127	0.504	-0.35512779	0.070947179	-0.097724718	-0.74806754	0.0401677	0.073438991	-0.49065145	0.08302909	-0.094200585	-0.88116343	0.057154726	0.12487071	-0.46746691	0.10934093	-0.016137075	-0.87393439	0.083482416	0.038881783	-0.53817181	0.048376415	-0.029099174	-0.93970449	0.033062795	0.083044873	-0.50731383	0.47468365	-0.1337899	-0.76866604	0.44478114	0.15972855	-0.46582953	0.45797738	-0.018668154	-0.77226764	0.44797424	0.027907225	-0.64536128	0.83587199	-0.17809479	-0.69895245	0.85290415	0.20555271	-0.59985584	0.94321436	-0.10329731	-0.61337716	0.94052442	0.141496	-0.8080703	0.95252078	0.0010115035	-0.66820894	1.4120653	-0.13519977	-0.66480083	1.4119757	0.18819575	-0.74874813	1.4406728	0.021953735	-0.80068143	1.0906121	-0.19058096	-0.73179355	1.0645542	0.25485269	-0.67011534	0.88478149	-0.21947502	-0.56290564	0.88244145	0.25730802
128	0.508	-0.33694231	0.07298606	-0.097490986	-0.7480991	0.040024074	0.073414074	-0.47285448	0.081673706	-0.095514193	-0.88050229	0.057138624	0.12502367	-0.45115951	0.10859655	-0.017252486	-0.87377174	0.083481435	0.038687148	-0.52020637	0.045950509	-0.030969013	-0.93969417	0.033219396	0.082659711	-0.50096337	0.47291192	-0.134242	-0.7664709	0.44425873	0.15944697	-0.45999368	0.45658359	-0.018905366	-0.76978462	0.44736809	0.027576791	-0.63874419	0.83488509	-0.17829782	-0.69522699	0.85216729	0.20520323	-0.59366361	0.94202825	-0.10326424	-0.60935363	0.93933664	0.1415303	-0.80106107	0.95082401	-0.00048032673	-0.66272558	1.410749	-0.13540542	-0.6592407	1.4107291	0.18790054	-0.74331658	1.439415	0.021701851	-0.79645791	1.0898981	-0.19110661	-0.72453096	1.0628301	0.25519755	-0.66710173	0.88346375	-0.22046442	-0.55357317	0.88253311	0.25537419
129	0.512	-0.31897754	0.075097686	-0.097104768	-0.74808823	0.039843779	0.073435255	-0.45513792	0.080529747	-0.096913848	-0.8799755	0.05713789	0.12514713	-0.43504575	0.10803746	-0.018469552	-0.87363214	0.083514387	0.038464704	-0.50247518	0.043835363	-0.033073633	-0.93970461	0.0333979	0.082304007	-0.49452913	0.4710468	-0.13476666	-0.7641649	0.44370337	0.15917712	-0.4542823	0.45508502	-0.019122414	-0.76724448	0.44674269	0.027247763	-0.63221327	0.83377909	-0.17849633	-0.69149803	0.85142123	0.20487793	-0.58743022	0.94080007	-0.10322232	-0.60533758	0.93810215	0.14153746	-0.79437338	0.9489743	-0.0019870339	-0.65728401	1.4093646	-0.13562881	-0.65367046	1.409416	0.18760093	-0.73787177	1.4381012	0.021451789	-0.79226854	1.089123	-0.19181571	-0.71719906	1.061037	0.25550216	-0.66387765	0.88205691	-0.22136548	-0.54418996	0.88257611	0.25340287
130	0.516	-0.30128353	0.077263065	-0.096554001	-0.74802103	0.039700701	0.073530382	-0.43757891	0.079645358	-0.09844827	-0.87966846	0.057166338	0.12514382	-0.4192243	0.10762189	-0.01976951	-0.87354288	0.083600429	0.038206347	-0.48499853	0.041984951	-0.035520209	-0.93979525	0.033581069	0.082177758	-0.48798745	0.46912665	-0.13537343	-0.76177279	0.44312391	0.15892529	-0.44867825	0.45346977	-0.0193186	-0.76463813	0.44610513	0.026917289	-0.62573099	0.83254689	-0.17868354	-0.68773494	0.85062281	0.2045557	-0.58109796	0.93954233	-0.1031677	-0.60098413	0.93687619	0.14153084	-0.78865366	0.94733428	-0.0031643356	-0.65186568	1.4079202	-0.13587547	-0.6481134	1.4080446	0.18731785	-0.73241053	1.4367346	0.021202385	-0.78808376	1.0882949	-0.19264764	-0.70977528	1.0591735	0.25574765	-0.66046405	0.88057089	-0.22215688	-0.53476687	0.88257127	0.25139108
131	0.52	-0.28389877	0.079511768	-0.095808089	-0.74793615	0.039627328	0.073655296	-0.42022701	0.079046607	-0.10012626	-0.87950346	0.057216941	0.12504133	-0.40376002	0.10731279	-0.021101943	-0.87348577	0.083729331	0.037929043	-0.46774055	0.040307935	-0.038421721	-0.93994887	0.03377002	0.082253334	-0.48132856	0.46718744	-0.13604277	-0.75923493	0.44252651	0.1587023	-0.44318762	0.45171694	-0.019504652	-0.76195498	0.44545439	0.026579203	-0.619175	0.83120603	-0.17884711	-0.68390553	0.84975678	0.20419354	-0.57465619	0.93824781	-0.10308372	-0.59619167	0.93568783	0.14151432	-0.78392333	0.94608605	-0.0038087379	-0.64640357	1.4064112	-0.13613646	-0.64255593	1.40662	0.1870544	-0.72692591	1.4353179	0.020948802	-0.78384919	1.0874206	-0.19344748	-0.70225228	1.0572427	0.25592732	-0.65699477	0.87902383	-0.22286451	-0.52535063	0.88252887	0.24935776
132	0.524	-0.26684778	0.08191929	-0.094840962	-0.74787986	0.03959586	0.073752301	-0.40312404	0.078738212	-0.10193344	-0.87940315	0.057285336	0.12491713	-0.38865974	0.10707788	-0.022435013	-0.87339967	0.08386021	0.037667296	-0.45062242	0.038726811	-0.041766655	-0.94007319	0.033986095	0.082245053	-0.47456187	0.46526143	-0.13673139	-0.7565654	0.4419085	0.15849125	-0.43781217	0.44981727	-0.019672498	-0.75917908	0.4448047	0.02621982	-0.61243572	0.8297841	-0.17898919	-0.68000219	0.84884412	0.20376512	-0.56815303	0.93689855	-0.10296351	-0.59117581	0.9345163	0.14148007	-0.77981294	0.94514326	-0.0039960555	-0.64089001	1.4048368	-0.13640545	-0.63696495	1.4051484	0.18679566	-0.72141291	1.4338537	0.020687442	-0.77953841	1.0864965	-0.19412428	-0.6946602	1.0552528	0.25606002	-0.65358464	0.87742502	-0.22352661	-0.51596697	0.88245623	0.24731201
